<svg width="11" height="11" viewBox="0 0 11 11" fill="none" xmlns="http://www.w3.org/2000/svg">
<path id="Vector" d="M3.17678 5.07322C3.07915 4.97559 2.92085 4.97559 2.82322 5.07322L2.07322 5.82322C1.84407 6.05238 1.57244 6.54054 1.4872 7.10317C1.40932 7.61717 1.48473 8.21402 1.90606 8.74039L0.823223 9.82322C0.725592 9.92085 0.725592 10.0791 0.823223 10.1768C0.920854 10.2744 1.07915 10.2744 1.17678 10.1768L2.25961 9.09394C2.78598 9.51527 3.38284 9.59068 3.89683 9.5128C4.45946 9.42756 4.94762 9.15593 5.17678 8.92678L5.92678 8.17678C6.02441 8.07915 6.02441 7.92085 5.92678 7.82322L3.17678 5.07322ZM5.07322 2.82322C4.97559 2.92085 4.97559 3.07915 5.07322 3.17678L5.39645 3.5L4.57322 4.32322C4.47559 4.42085 4.47559 4.57915 4.57322 4.67678C4.67085 4.77441 4.82915 4.77441 4.92678 4.67678L5.75 3.85355L7.14645 5.25L6.32322 6.07322C6.22559 6.17085 6.22559 6.32915 6.32322 6.42678C6.42085 6.52441 6.57915 6.52441 6.67678 6.42678L7.5 5.60355L7.82322 5.92678C7.92085 6.02441 8.07915 6.02441 8.17678 5.92678L8.92678 5.17678C9.15593 4.94762 9.42756 4.45946 9.5128 3.89683C9.59068 3.38284 9.51527 2.78598 9.09394 2.25961L10.1768 1.17678C10.2744 1.07915 10.2744 0.920854 10.1768 0.823223C10.0791 0.725592 9.92085 0.725592 9.82322 0.823223L8.74039 1.90606C8.21402 1.48473 7.61717 1.40932 7.10317 1.4872C6.54054 1.57244 6.05238 1.84407 5.82322 2.07322L5.07322 2.82322Z" stroke="white" stroke-width="0.5" stroke-linecap="round" stroke-linejoin="round"/>
</svg>
