<svg width="8" height="10" viewBox="0 0 8 10" fill="none" xmlns="http://www.w3.org/2000/svg">
<g id="Bronze">
<path id="Vector" d="M6.35013 0L4.4668 2.81667H5.40013L7.50013 0H6.35013Z" fill="#428BC1"/>
<path id="Vector_2" d="M5.39987 0L3.5332 2.81667H4.46654L6.34987 0H5.39987Z" fill="#E8E8E8"/>
<path id="Vector_3" d="M4.46628 0L2.59961 2.81667H3.53294L5.39961 0H4.46628Z" fill="#ED4C5C"/>
<g id="Group">
<path id="Vector_4" d="M3.99974 9.99997C5.89592 9.99997 7.43307 8.46281 7.43307 6.56663C7.43307 4.67046 5.89592 3.1333 3.99974 3.1333C2.10356 3.1333 0.566406 4.67046 0.566406 6.56663C0.566406 8.46281 2.10356 9.99997 3.99974 9.99997Z" fill="#D3976E"/>
<path id="Vector_5" d="M2.28281 2.18329C2.19948 2.18329 2.13281 2.24996 2.13281 2.33329V3.73329C2.13281 3.81662 2.19948 3.88329 2.28281 3.88329H5.71615C5.79948 3.88329 5.86615 3.81662 5.86615 3.73329V2.33329C5.86615 2.24996 5.79948 2.18329 5.71615 2.18329H2.28281ZM5.56615 3.28329C5.56615 3.36662 5.49948 3.43329 5.41615 3.43329H2.59948C2.51615 3.43329 2.44948 3.36662 2.44948 3.28329V2.64996C2.44948 2.56662 2.51615 2.49996 2.59948 2.49996H5.41615C5.49948 2.49996 5.56615 2.56662 5.56615 2.64996V3.28329Z" fill="#D3976E"/>
</g>
<path id="Vector_6" opacity="0.5" d="M1.04948 6.96668C1.04948 5.10002 2.48281 3.58335 4.31615 3.45002C4.23281 3.45002 4.13281 3.43335 4.04948 3.43335C2.29948 3.43335 0.882812 4.85002 0.882812 6.61668C0.882812 7.13335 1.01615 7.63335 1.23281 8.06668C1.11615 7.71668 1.04948 7.35002 1.04948 6.96668Z" fill="#3E4347"/>
<path id="Vector_7" opacity="0.33" d="M5.31745 9.21664C6.86745 8.18331 7.33411 6.16664 6.43411 4.59998L6.58411 4.79998C7.55078 6.23331 7.15078 8.18331 5.70078 9.16664C5.26745 9.46664 4.78411 9.63331 4.30078 9.68331C4.66745 9.58331 5.00078 9.43331 5.31745 9.21664Z" fill="white"/>
<path id="Vector_8" d="M2.6 2.81667H3.53333L1.65 0H0.5L2.6 2.81667Z" fill="#ED4C5C"/>
<path id="Vector_9" d="M3.53372 2.81667H4.46706L2.60039 0H1.65039L3.53372 2.81667Z" fill="#E8E8E8"/>
<path id="Vector_10" opacity="0.5" d="M4.15026 0.466675L3.68359 1.16667L4.78359 2.81667H5.40026L5.56693 2.58334L4.15026 0.466675Z" fill="#3E4347"/>
<path id="Vector_11" d="M4.46628 2.81667H5.39961L3.53294 0H2.59961L4.46628 2.81667Z" fill="#428BC1"/>
<path id="Vector_12" opacity="0.5" d="M3.91641 4.91667C3.56641 4.91667 3.28307 5.2 3.28307 5.53334H2.83307C2.83307 5.58334 2.81641 5.63334 2.81641 5.68334H3.44974C3.44974 5.33334 3.73307 5.05 4.08307 5.05C4.21641 5.05 4.33307 5.1 4.43307 5.16667C4.31641 5.03334 4.13307 4.91667 3.91641 4.91667ZM4.89974 6.63334C5.16641 6.4 5.33307 6.06667 5.33307 5.7C5.33307 5.31667 5.16641 4.96667 4.88307 4.73334C5.06641 4.95 5.18307 5.23334 5.18307 5.53334C5.18307 5.9 5.01641 6.25 4.74974 6.46667C5.01641 6.7 5.18307 7.03334 5.18307 7.4C5.18307 8.08334 4.61641 8.65 3.93307 8.65C3.63307 8.65 3.34974 8.53334 3.13307 8.35C3.36641 8.61667 3.69974 8.8 4.09974 8.8C4.78307 8.8 5.34974 8.23334 5.34974 7.55C5.33307 7.2 5.16641 6.86667 4.89974 6.63334Z" fill="#3E4347"/>
<path id="Vector_13" opacity="0.33" d="M4.08268 4.44999C4.38268 4.44999 4.66602 4.56665 4.88268 4.74999C4.64935 4.48332 4.31602 4.29999 3.91602 4.29999C3.23268 4.29999 2.66602 4.86665 2.66602 5.54999H2.83268C2.91602 4.93332 3.43268 4.44999 4.08268 4.44999ZM4.69935 5.69999C4.69935 5.48332 4.59935 5.29999 4.43268 5.18332C4.49935 5.28332 4.54935 5.39999 4.54935 5.53332C4.54935 5.88332 4.26602 6.16665 3.91602 6.16665V6.79999C3.96602 6.79999 4.01602 6.81665 4.06602 6.81665V6.33332C4.41602 6.33332 4.69935 6.04999 4.69935 5.69999ZM4.08268 8.19999C4.43268 8.19999 4.71602 7.91665 4.71602 7.56665C4.71602 7.34999 4.61602 7.16665 4.44935 7.04999C4.51602 7.14999 4.56602 7.26665 4.56602 7.39999C4.56602 7.74999 4.28268 8.03332 3.93268 8.03332C3.79935 8.03332 3.68268 7.98332 3.58268 7.91665C3.68268 8.09999 3.86602 8.19999 4.08268 8.19999ZM3.31602 7.58332C3.29935 7.53332 3.29935 7.48332 3.29935 7.43332H2.66602C2.66602 7.81665 2.83268 8.16666 3.11602 8.39999C2.93268 8.18332 2.81602 7.89999 2.81602 7.59999L3.31602 7.58332Z" fill="white"/>
</g>
</svg>
