<svg width="30" height="30" viewBox="0 0 30 30" fill="none" xmlns="http://www.w3.org/2000/svg">
<g id="Group">
<path id="Vector" d="M22.9688 0H7.03125C3.148 0 0 3.148 0 7.03125V22.9688C0 26.852 3.148 30 7.03125 30H22.9688C26.852 30 30 26.852 30 22.9688V7.03125C30 3.148 26.852 0 22.9688 0Z" fill="#5865F2"/>
<g id="Clip path group">
<mask id="mask0_1280_134" style="mask-type:luminance" maskUnits="userSpaceOnUse" x="3" y="5" width="24" height="20">
<g id="skillIconsDiscord0">
<path id="Vector_2" d="M3.28125 5.97656H26.7188V24.1324H3.28125V5.97656Z" fill="white"/>
</g>
</mask>
<g mask="url(#mask0_1280_134)">
<g id="Group_2">
<path id="Vector_3" d="M23.122 7.59324C21.6025 6.89572 19.9989 6.39832 18.3514 6.11351C18.3364 6.11074 18.3209 6.11276 18.3072 6.11928C18.2934 6.12581 18.2821 6.1365 18.2747 6.14984C18.0687 6.51617 17.8404 6.99429 17.6807 7.37C15.8792 7.10023 14.087 7.10023 12.3225 7.37C12.1627 6.98586 11.9262 6.51617 11.7193 6.14984C11.7116 6.13677 11.7002 6.12632 11.6865 6.11983C11.6728 6.11335 11.6575 6.11115 11.6425 6.11351C9.99486 6.39775 8.3912 6.89517 6.87192 7.59324C6.85892 7.59876 6.84794 7.60818 6.84051 7.62019C3.80208 12.1596 2.96981 16.5874 3.37809 20.9604C3.37923 20.9711 3.38251 20.9814 3.38775 20.9909C3.39298 21.0003 3.40006 21.0086 3.40856 21.0152C5.41317 22.4874 7.35508 23.3812 9.26091 23.9736C9.27573 23.978 9.29155 23.9778 9.30625 23.973C9.32096 23.9682 9.33384 23.959 9.34317 23.9466C9.79399 23.3309 10.1958 22.6818 10.5405 21.9992C10.5452 21.9899 10.5479 21.9796 10.5484 21.9691C10.5489 21.9587 10.5472 21.9482 10.5433 21.9385C10.5395 21.9287 10.5336 21.9199 10.5261 21.9125C10.5186 21.9052 10.5097 21.8996 10.4998 21.896C9.86231 21.6541 9.2554 21.3594 8.67157 21.0246C8.66094 21.0183 8.65201 21.0095 8.64557 20.999C8.63913 20.9885 8.63538 20.9765 8.63465 20.9642C8.63392 20.9519 8.63623 20.9396 8.64139 20.9283C8.64654 20.9171 8.65437 20.9074 8.66419 20.8999C8.78735 20.8078 8.90839 20.7129 9.02723 20.6154C9.03764 20.6067 9.05024 20.6012 9.06361 20.5994C9.07699 20.5976 9.09061 20.5995 9.10294 20.605C12.9387 22.3563 17.0913 22.3563 20.8817 20.605C20.8941 20.5992 20.9078 20.5969 20.9214 20.5986C20.935 20.6003 20.9478 20.6057 20.9584 20.6144C21.0774 20.7126 21.1988 20.8077 21.3224 20.8999C21.3323 20.9073 21.3402 20.917 21.3454 20.9282C21.3506 20.9393 21.353 20.9516 21.3524 20.9639C21.3518 20.9763 21.3481 20.9882 21.3418 20.9988C21.3354 21.0094 21.3266 21.0182 21.316 21.0246C20.7318 21.3657 20.1199 21.6568 19.4868 21.895C19.477 21.8988 19.468 21.9046 19.4606 21.912C19.4532 21.9195 19.4474 21.9284 19.4436 21.9382C19.4399 21.9481 19.4382 21.9586 19.4388 21.9691C19.4394 21.9796 19.4422 21.9899 19.4471 21.9992C19.7977 22.6764 20.1975 23.327 20.6433 23.9457C20.6524 23.9584 20.6652 23.9679 20.68 23.9729C20.6947 23.9779 20.7107 23.9781 20.7256 23.9736C22.6407 23.3812 24.5826 22.4874 26.5873 21.0152C26.5959 21.0089 26.6031 21.0008 26.6083 20.9915C26.6136 20.9822 26.6168 20.9719 26.6178 20.9613C27.1065 15.9057 25.7992 11.5141 23.1524 7.62113C23.1459 7.60848 23.1351 7.59858 23.122 7.59324ZM11.1133 18.2977C9.95841 18.2977 9.00684 17.2375 9.00684 15.9355C9.00684 14.6334 9.94001 13.5732 11.1133 13.5732C12.2957 13.5732 13.238 14.6428 13.2195 15.9355C13.2195 17.2375 12.2865 18.2977 11.1133 18.2977ZM18.9011 18.2977C17.7462 18.2977 16.7948 17.2375 16.7948 15.9355C16.7948 14.6334 17.7278 13.5732 18.9011 13.5732C20.0835 13.5732 21.0258 14.6428 21.0074 15.9355C21.0074 17.2375 20.0835 18.2977 18.9011 18.2977Z" fill="white"/>
</g>
</g>
</g>
</g>
</svg>
