<svg width="30" height="30" viewBox="0 0 30 30" fill="none" xmlns="http://www.w3.org/2000/svg">
<g id="Group 14">
<path id="Vector" d="M27.7867 0.000113606H2.2131C1.63285 -0.00579163 1.07396 0.218729 0.659058 0.624411C0.244156 1.03009 0.00713386 1.5838 0 2.16403V27.8409C0.008424 28.4203 0.246013 28.9727 0.660775 29.3773C1.07554 29.782 1.63369 30.0058 2.2131 29.9999H27.7867C28.367 30.0045 28.9255 29.7792 29.3402 29.3733C29.7549 28.9673 29.992 28.4138 29.9998 27.8335V2.15665C29.9894 1.57812 29.7512 1.02706 29.3367 0.623238C28.9223 0.219418 28.3653 -0.00451463 27.7867 0.000113606Z" fill="#0076B2"/>
<path id="Vector_2" d="M4.44101 11.2451H8.89426V25.5737H4.44101V11.2451ZM6.66886 4.11401C7.17963 4.11401 7.67892 4.2655 8.10357 4.54932C8.52822 4.83314 8.85916 5.23653 9.05451 5.70846C9.24986 6.18039 9.30084 6.69966 9.20102 7.20058C9.10119 7.70149 8.85504 8.16155 8.4937 8.52254C8.13237 8.88354 7.67208 9.12925 7.17107 9.2286C6.67006 9.32794 6.15084 9.27646 5.67909 9.08066C5.20734 8.88486 4.80427 8.55355 4.52086 8.12862C4.23744 7.7037 4.08643 7.20427 4.08692 6.6935C4.08757 6.00915 4.35988 5.35306 4.84402 4.86938C5.32816 4.3857 5.98451 4.11401 6.66886 4.11401ZM11.6877 11.2451H15.9565V13.2123H16.0155C16.6106 12.0861 18.0614 10.8984 20.2278 10.8984C24.7376 10.8886 25.5736 13.8566 25.5736 17.7049V25.5737H21.1204V18.6024C21.1204 16.9426 21.0909 14.8057 18.8065 14.8057C16.5221 14.8057 16.1335 16.6156 16.1335 18.4942V25.5737H11.6877V11.2451Z" fill="white"/>
</g>
</svg>
