<svg width="6" height="5" viewBox="0 0 6 5" fill="none" xmlns="http://www.w3.org/2000/svg">
<path id="Vector" d="M2.30386 0.394718C1.39117 1.00872 0.934945 1.7487 0.934945 2.61366C0.934945 2.8829 0.979686 3.0174 1.06871 3.0174L1.16051 2.99133C1.23284 2.96209 1.29103 2.94747 1.33577 2.94747C1.59703 2.94747 1.81564 3.04737 1.99067 3.24716C2.16593 3.44696 2.25356 3.69305 2.25356 3.98689C2.25356 4.2688 2.15851 4.50831 1.96957 4.70494C1.78041 4.90156 1.55229 4.99976 1.28523 4.99976C0.912458 4.99976 0.604828 4.83895 0.362572 4.51659C0.12078 4.19497 0 3.79051 0 3.30393C0 2.75328 0.102466 2.24965 0.308325 1.79255C0.514648 1.3357 0.828538 0.922713 1.25138 0.553579C1.67423 0.184689 1.94407 0 2.06091 0C2.1388 0 2.20279 0.0394718 2.25286 0.118415C2.30294 0.197115 2.32797 0.265825 2.32797 0.324302L2.30386 0.394718ZM5.3083 0.394718C4.39561 1.00872 3.93961 1.74845 3.93961 2.61391C3.93961 2.88314 3.98435 3.01764 4.07337 3.01764L4.16517 2.99157C4.2375 2.96233 4.29569 2.94771 4.34043 2.94771C4.59613 2.94771 4.81335 3.04761 4.99116 3.24741C5.16967 3.4472 5.25822 3.69329 5.25822 3.98714C5.25822 4.26904 5.16318 4.50855 4.97424 4.70518C4.78507 4.90181 4.55696 5 4.2899 5C3.91712 5 3.60949 4.83919 3.36724 4.51684C3.12545 4.19521 3.00467 3.79075 3.00467 3.30418C3.00467 2.74767 3.10852 2.23941 3.31763 1.77988C3.52627 1.32011 3.84039 0.908338 4.26045 0.545295C4.68121 0.182009 4.94943 0.000243751 5.06604 0.000243751C5.14417 0.000243751 5.20815 0.0397154 5.25845 0.118659C5.3083 0.197602 5.33333 0.266313 5.33333 0.324789L5.3083 0.394718Z" fill="#12065C"/>
</svg>
