<svg width="22" height="20" viewBox="0 0 22 20" fill="none" xmlns="http://www.w3.org/2000/svg">
<path id="Vector" d="M20.9172 8.99365L2.03041 0.10573C1.84022 0.0162397 1.62856 -0.0174648 1.41998 0.00853003C1.21141 0.0345249 1.01449 0.119153 0.852091 0.252586C0.689691 0.386019 0.568474 0.562783 0.502515 0.762352C0.436557 0.961921 0.428564 1.17611 0.479464 1.38004L1.82598 6.76723L10.445 9.9991L1.82598 13.231L0.479464 18.6182C0.427606 18.8222 0.434932 19.0369 0.500586 19.2369C0.566239 19.437 0.687504 19.6142 0.850197 19.7479C1.01289 19.8816 1.21028 19.9662 1.41929 19.9918C1.62829 20.0174 1.84026 19.9829 2.03041 19.8925L20.9172 11.0045C21.1081 10.9148 21.2695 10.7726 21.3825 10.5946C21.4956 10.4165 21.5556 10.21 21.5556 9.9991C21.5556 9.7882 21.4956 9.58166 21.3825 9.40361C21.2695 9.22557 21.1081 9.08337 20.9172 8.99365Z" fill="#FAFEFF"/>
</svg>
