<svg width="10" height="9" viewBox="0 0 10 9" fill="none" xmlns="http://www.w3.org/2000/svg">
<path id="Vector" d="M3.00382 0L2.00254 1.00127L1.00127 2.00254L2.00254 3.00382L3.00382 4.00509L3.35426 3.65464L3.70471 3.3042L3.05388 2.65337L2.40305 2.00254L3.05388 1.35172L3.70471 0.70089L3.35426 0.350445L3.00382 0ZM6.00763 0L5.65719 0.350445L5.30674 0.70089L5.95757 1.35172L6.6084 2.00254L5.95757 2.65337L5.30674 3.3042L5.65719 3.65464L6.00763 4.00509L7.00891 3.00382L8.01018 2.00254L7.00891 1.00127L6.00763 0ZM8.99994 7.5546L8.80569 6.78762C8.79325 6.73873 8.77106 6.69285 8.74043 6.65275C8.7098 6.61266 8.67137 6.57918 8.62746 6.55433C8.58333 6.52909 8.53461 6.51291 8.48415 6.50672C8.4337 6.50053 8.38251 6.50446 8.33359 6.51828L6.05469 7.1611L4.50572 6.50827L6.46572 6.00613C6.59952 5.88676 6.69644 5.73165 6.74507 5.55906L6.59137 5.00636L2.50318 5.507H0V8.51081H2.50318L4.73351 8.99343C4.85476 9.00445 4.97688 9.0016 5.09748 8.98492L8.73209 8.00667C8.82744 7.98114 8.90901 7.91933 8.95938 7.83445C8.98425 7.79269 9.00064 7.74643 9.0076 7.69832C9.01455 7.65021 9.01195 7.6017 8.99994 7.5546ZM1.50191 8.01018H0.500636V6.00763H1.50191V8.01018ZM4.96731 8.5018C4.94475 8.50768 4.92154 8.51071 4.89822 8.51081C4.87887 8.51088 4.85957 8.50887 4.84065 8.50481L2.50318 7.99165V6.01765L6.17234 5.56307L3.50445 6.50827L5.86796 7.62569L6.02666 7.68927L6.19087 7.64271L8.35161 7.03344L8.48378 7.5551L4.96731 8.5018Z" fill="white"/>
</svg>
