<svg width="109" height="101" viewBox="0 0 109 101" fill="none" xmlns="http://www.w3.org/2000/svg">
<path id="Vector" d="M97.8261 0.5H10.8696C7.98678 0.5 5.22206 1.64518 3.18362 3.68362C1.14518 5.72206 0 8.48678 0 11.3696V72.2391C0 75.1219 1.14518 77.8866 3.18362 79.9251C5.22206 81.9635 7.98678 83.1087 10.8696 83.1087H52.1739V96.1522H36.9565C36.38 96.1522 35.827 96.3812 35.4193 96.7889C35.0116 97.1966 34.7826 97.7495 34.7826 98.3261C34.7826 98.9026 35.0116 99.4556 35.4193 99.8633C35.827 100.271 36.38 100.5 36.9565 100.5H71.7391C72.3157 100.5 72.8686 100.271 73.2763 99.8633C73.684 99.4556 73.913 98.9026 73.913 98.3261C73.913 97.7495 73.684 97.1966 73.2763 96.7889C72.8686 96.3812 72.3157 96.1522 71.7391 96.1522H56.5217V83.1087H97.8261C100.709 83.1087 103.474 81.9635 105.512 79.9251C107.55 77.8866 108.696 75.1219 108.696 72.2391V11.3696C108.696 8.48678 107.55 5.72206 105.512 3.68362C103.474 1.64518 100.709 0.5 97.8261 0.5ZM10.8696 4.84783H97.8261C99.5558 4.84783 101.215 5.53493 102.438 6.758C103.661 7.98106 104.348 9.63989 104.348 11.3696V57.0217H4.34783V11.3696C4.34783 9.63989 5.03493 7.98106 6.258 6.758C7.48106 5.53493 9.13989 4.84783 10.8696 4.84783ZM97.8261 78.7609H10.8696C9.13989 78.7609 7.48106 78.0738 6.258 76.8507C5.03493 75.6276 4.34783 73.9688 4.34783 72.2391V61.3696H104.348V72.2391C104.348 73.9688 103.661 75.6276 102.438 76.8507C101.215 78.0738 99.5558 78.7609 97.8261 78.7609Z" fill="white"/>
</svg>
