<svg width="20" height="20" viewBox="0 0 20 20" fill="none" xmlns="http://www.w3.org/2000/svg">
<path id="Vector" fill-rule="evenodd" clip-rule="evenodd" d="M14.9222 0.845157C14.7236 0.527804 14.431 0.28027 14.0851 0.137011C13.7392 -0.00624785 13.3573 -0.0381037 12.9924 0.0458788L10.4031 0.640657C10.1377 0.701649 9.86196 0.701649 9.5966 0.640657L7.00723 0.0458788C6.64239 -0.0381037 6.26044 -0.00624785 5.91456 0.137011C5.56867 0.28027 5.27605 0.527804 5.07744 0.845157L3.6661 3.09753C3.52209 3.32796 3.32767 3.52238 3.09725 3.66783L0.844867 5.07917C0.528062 5.27761 0.280891 5.56975 0.137663 5.91504C-0.00556476 6.26034 -0.0377449 6.64166 0.0455895 7.00607L0.640367 9.59833C0.701139 9.86323 0.701139 10.1385 0.640367 10.4034L0.0455895 12.9942C-0.0380688 13.3588 -0.0060506 13.7404 0.137193 14.086C0.280436 14.4316 0.527789 14.724 0.844867 14.9225L3.09725 16.3339C3.32767 16.4779 3.52209 16.6723 3.66754 16.9027L5.07888 19.1551C5.485 19.8046 6.25979 20.1257 7.00723 19.9544L9.5966 19.3596C9.86196 19.2986 10.1377 19.2986 10.4031 19.3596L12.9939 19.9544C13.3585 20.038 13.7401 20.006 14.0857 19.8628C14.4313 19.7195 14.7237 19.4722 14.9222 19.1551L16.3336 16.9027C16.4776 16.6723 16.672 16.4779 16.9024 16.3339L19.1562 14.9225C19.4733 14.7237 19.7206 14.431 19.8636 14.0851C20.0066 13.7393 20.0382 13.3574 19.9541 12.9927L19.3607 10.4034C19.2998 10.138 19.2998 9.86225 19.3607 9.59689L19.9555 7.00607C20.0393 6.6416 20.0075 6.26007 19.8645 5.91449C19.7216 5.56892 19.4745 5.27645 19.1577 5.07773L16.9039 3.66639C16.6738 3.52211 16.4793 3.32764 16.335 3.09753L14.9222 0.845157ZM14.1978 6.78861C14.2869 6.62482 14.309 6.43286 14.2594 6.25313C14.2098 6.0734 14.0925 5.9199 13.932 5.82493C13.7716 5.72997 13.5805 5.70094 13.3991 5.74396C13.2177 5.78698 13.0601 5.89869 12.9593 6.05558L9.19336 12.4296L6.91938 10.2521C6.85191 10.1829 6.77119 10.1279 6.68203 10.0905C6.59286 10.0531 6.49708 10.0341 6.40039 10.0345C6.3037 10.0349 6.20808 10.0548 6.11924 10.093C6.03041 10.1311 5.95017 10.1868 5.88332 10.2567C5.81646 10.3265 5.76436 10.4091 5.73012 10.4995C5.69588 10.59 5.6802 10.6864 5.68402 10.783C5.68784 10.8796 5.71108 10.9745 5.75235 11.0619C5.79362 11.1493 5.85208 11.2276 5.92424 11.2919L8.85349 14.0988C8.93188 14.1737 9.02621 14.23 9.12941 14.2634C9.23261 14.2968 9.34202 14.3065 9.44948 14.2916C9.55693 14.2768 9.65965 14.2379 9.74996 14.1778C9.84027 14.1178 9.91585 14.0381 9.97103 13.9447L14.1978 6.78861Z" fill="#006E91"/>
</svg>
