<svg width="44" height="30" viewBox="0 0 44 30" fill="none" xmlns="http://www.w3.org/2000/svg">
<g id="Group 13">
<path id="Vector" d="M42.7003 4.69783C42.4546 3.78981 41.9753 2.96201 41.3102 2.29684C40.6451 1.63167 39.8173 1.15235 38.9093 0.906601C35.5851 0 22.2063 0 22.2063 0C22.2063 0 8.82678 0.0274423 5.50258 0.934043C4.59455 1.1798 3.76675 1.65915 3.10161 2.32435C2.43647 2.98955 1.9572 3.81739 1.71152 4.72544C0.706024 10.6319 0.315975 19.632 1.73913 25.3022C1.98483 26.2102 2.46412 27.038 3.12926 27.7032C3.7944 28.3683 4.62218 28.8477 5.53019 29.0934C8.85439 30 22.2335 30 22.2335 30C22.2335 30 35.6125 30 38.9365 29.0934C39.8446 28.8477 40.6724 28.3684 41.3376 27.7032C42.0027 27.038 42.4821 26.2102 42.7278 25.3022C43.7883 19.3873 44.1151 10.3928 42.7003 4.69783Z" fill="#FF0000"/>
<path id="Vector_2" d="M17.9473 21.4286L29.046 15.0001L17.9473 8.57153V21.4286Z" fill="white"/>
</g>
</svg>
